<?xml version="1.0" encoding="utf-8"?>
<!-- Generator: Adobe Illustrator 16.0.0, SVG Export Plug-In . SVG Version: 6.00 Build 0)  -->
<!DOCTYPE svg PUBLIC "-//W3C//DTD SVG 1.1//EN" "http://www.w3.org/Graphics/SVG/1.1/DTD/svg11.dtd">
<svg version="1.1" id="Layer_1" xmlns="http://www.w3.org/2000/svg" xmlns:xlink="http://www.w3.org/1999/xlink" x="0px" y="0px"
	 width="213.25px" height="75.004px" viewBox="-42.192 -13.533 213.25 75.004"
	 enable-background="new -42.192 -13.533 213.25 75.004" xml:space="preserve">
<g>
	<polygon fill="#FFFFFF" points="44.078,45.684 44.101,45.668 44.078,45.653 44.078,8.068 31.467,15.378 31.467,38.315 
		11.514,26.703 -20.892,45.472 -9.881,52.337 11.523,39.502 33.089,52.523 44.051,45.698 44.078,45.712 	"/>
	<polygon fill="#FFFFFF" points="44.101,2.44 33.089,-4.415 11.682,8.431 -9.881,-4.585 -20.829,2.225 -20.862,2.205 -20.862,2.245 
		-20.892,2.264 -20.862,2.282 -20.862,39.87 -8.257,32.557 -8.257,9.615 11.693,21.219 22.501,14.962 22.496,14.957 	"/>
	<g>
		<g>
			<g>
				<g>
					<g>
						<path fill="#FFFFFF" d="M79.275,0.303h1.297v20.971h-4.187l0.039-11.518l-5.291,5.54l-5.283-5.54v11.518h-4.19V0.303h1.327
							l8.149,9.081L79.275,0.303z"/>
					</g>
				</g>
				<g>
					<g>
						<path fill="#FFFFFF" d="M85.229,21.273V0.638h4.137v20.636L85.229,21.273L85.229,21.273z"/>
					</g>
				</g>
				<g>
					<g>
						<path fill="#FFFFFF" d="M94.01,0.638h4.132c0,2.742,0,5.484,0,8.215l5.195-8.215h4.827l-6.692,10.186l7.271,10.449h-5.114
							l-5.486-8.081c0,2.654,0,5.426,0,8.081H94.01V0.638z"/>
					</g>
				</g>
				<g>
					<g>
						<path fill="#FFFFFF" d="M121.743,21.273l-4.158-7.878h-1.989v7.878h-4.141V0.638h8.148c7.361,0,8.091,10.357,2.028,12.128
							l4.788,8.508L121.743,21.273L121.743,21.273z M115.595,9.384h3.634c2.796,0,2.796-4.62,0-4.62h-3.634V9.384z"/>
					</g>
				</g>
				<g>
					<g>
						<path fill="#FFFFFF" d="M139.098,0.285c14.213,0,14.213,21.276,0,21.276C124.894,21.562,124.894,0.285,139.098,0.285z
							 M139.098,4.528c-8.257,0-8.257,12.766,0,12.766C147.363,17.293,147.363,4.528,139.098,4.528z"/>
					</g>
				</g>
			</g>
		</g>
		<path fill="#FFFFFF" d="M67.981,47.659l-8.457-21.081h4.653l4.158,10.54l4.043-10.338h0.196l4.04,10.338l4.166-10.54h4.647
			L77,47.573h-0.759l-3.779-9.157l-3.754,9.243H67.981z"/>
		<path fill="#FFFFFF" d="M92.536,25.819h0.432l8.696,21.414h-4.652l-0.829-2.229h-6.854l-0.803,2.229h-4.68L92.536,25.819z
			 M94.647,41.131l-1.884-5.368l-1.924,5.368H94.647z"/>
		<path fill="#FFFFFF" d="M107.125,37.924l-7.196-11.348h5.029l4.217,7.096l4.208-7.096h5.062l-7.217,11.348v9.309h-4.101v-9.309
			H107.125z"/>
		<path fill="#FFFFFF" d="M120.382,41.567c2.368,1.67,4.94,1.73,5.892,1.642c1.218-0.083,2.255-0.954,2.139-2.077
			c-0.093-1.19-0.988-1.706-2.139-2.107c-3.233-1.185-6.12-2.822-6.12-6.305c0-3.454,2.399-6.118,5.826-6.285
			c1.07-0.064,2.487-0.064,5.146,0.859l-0.519,3.987c-2.287-0.92-3.575-0.89-4.217-0.858c-1.477,0.079-2.138,1.148-2.049,2.297
			c0.11,1.163,1.126,1.68,2.307,2.087c3.203,1.187,5.98,3.033,5.98,6.323c0,3.435-2.369,6.077-6.238,6.273
			c-1.167,0.077-3.724-0.064-6.521-1.503L120.382,41.567z"/>
	</g>
</g>
</svg>
